<svg width="16" height="16" viewBox="0 0 16 16" fill="none" xmlns="http://www.w3.org/2000/svg">
<g clip-path="url(#clip0_17_26)">
<path d="M8.1582 6.8565V9.5985H12.6972C12.5122 10.7755 11.3247 13.049 8.1582 13.049C5.4292 13.049 3.1997 10.7885 3.1997 7.9995C3.1997 5.2105 5.4287 2.95 8.1582 2.95C9.7127 2.95 10.7547 3.609 11.3482 4.182L13.5177 2.091C12.1247 0.7915 10.3197 0 8.1582 0C3.7362 0 0.158203 3.5755 0.158203 8C0.158203 12.4245 3.7362 16 8.1582 16C12.7752 16 15.8407 12.755 15.8407 8.1825C15.8407 7.6565 15.7832 7.2555 15.7132 6.857L8.1582 6.8565Z" fill="white"/>
</g>
<defs>
<clipPath id="clip0_17_26">
<rect width="16" height="16" fill="white"/>
</clipPath>
</defs>
</svg>
