<svg width="219" height="63" viewBox="0 0 219 63" fill="none" xmlns="http://www.w3.org/2000/svg">
<g clip-path="url(#clip0_12_226)">
<path d="M37.2963 41.28C35.9736 41.28 34.715 40.896 33.5203 40.128C32.3256 39.36 31.4296 38.2293 30.8323 36.736C30.619 36.1813 30.4696 35.584 30.3843 34.944C30.3416 34.304 30.3203 33.6853 30.3203 33.088V32.256C30.3203 31.9573 30.3416 31.68 30.3843 31.424C30.4696 31.168 30.6403 31.04 30.8963 31.04C30.9816 31.04 31.0243 31.0827 31.0243 31.168C31.0243 31.424 31.003 31.68 30.9603 31.936C30.9603 32.192 30.9603 32.448 30.9603 32.704C30.9603 34.7093 31.451 36.224 32.4323 37.248C33.4563 38.272 34.715 38.784 36.2083 38.784C37.7016 38.784 39.1523 38.3573 40.5603 37.504C41.9683 36.6507 43.2696 35.5627 44.4643 34.24C45.4456 33.1733 46.4056 31.7867 47.3443 30.08C48.3256 28.3733 49.3283 26.5387 50.3523 24.576C48.987 24.6187 47.5576 24.6827 46.0643 24.768C44.571 24.8107 43.2056 24.9387 41.9683 25.152C41.5843 25.1947 41.4776 25.088 41.6483 24.832C41.819 24.576 42.139 24.256 42.6083 23.872C43.0776 23.488 43.5683 23.1467 44.0803 22.848C44.635 22.5493 45.083 22.3787 45.4243 22.336C46.1496 22.3787 47.0456 22.4213 48.1123 22.464C49.2216 22.464 50.3096 22.4853 51.3763 22.528C52.315 20.8213 53.211 19.0933 54.0643 17.344C54.9603 15.552 55.7923 13.888 56.5603 12.352C56.987 11.4987 57.5416 10.6453 58.2243 9.79203C58.9496 8.89603 59.739 8.1067 60.5923 7.42403C61.4883 6.74136 62.4056 6.31469 63.3443 6.14403C61.083 6.22936 58.7363 6.29336 56.3043 6.33603C53.915 6.37869 51.6323 6.69869 49.4563 7.29603C48.475 7.55203 47.6003 7.89336 46.8323 8.32003C46.0643 8.7467 45.5096 9.28003 45.1683 9.92003C44.827 10.56 44.6563 11.264 44.6563 12.032C44.6563 13.0987 44.955 13.8667 45.5523 14.336C45.595 14.3787 45.6163 14.4213 45.6163 14.464C45.6163 14.5493 45.531 14.6347 45.3603 14.72C45.2323 14.8053 45.1043 14.8267 44.9763 14.784C44.5923 14.5707 44.123 14.0587 43.5683 13.248C43.0136 12.3947 42.6723 11.6907 42.5443 11.136C42.4163 10.624 42.3523 10.1547 42.3523 9.72803C42.3523 8.6187 42.715 7.76536 43.4403 7.16803C44.1656 6.52803 45.083 6.08003 46.1923 5.82403C47.3016 5.52536 48.4323 5.3547 49.5843 5.31203C50.7363 5.22669 51.7603 5.18403 52.6563 5.18403H59.7603C61.3816 5.18403 62.7896 5.18403 63.9843 5.18403C65.179 5.14136 66.139 5.05603 66.8643 4.92803C66.9496 4.92803 67.0136 4.92803 67.0563 4.92803C67.099 4.88536 67.1416 4.86403 67.1843 4.86403C67.4403 4.86403 67.5683 4.94936 67.5683 5.12003C67.5683 5.2907 67.483 5.46136 67.3123 5.63203C67.1843 5.76003 67.0776 5.82403 66.9923 5.82403C65.6696 5.95203 64.4323 6.52803 63.2803 7.55203C62.1283 8.57603 61.083 9.8987 60.1443 11.52C59.8883 11.9893 59.419 12.864 58.7363 14.144C58.0536 15.424 57.307 16.832 56.4963 18.368C55.6856 19.904 54.939 21.3333 54.2563 22.656C55.067 22.6987 55.7283 22.7413 56.2403 22.784C56.795 22.784 57.115 22.784 57.2003 22.784H66.6083C66.9923 22.784 67.6963 22.72 68.7203 22.592C69.787 22.464 70.5976 22.272 71.1523 22.016C72.3043 19.7973 73.4776 17.6 74.6723 15.424C75.867 13.248 76.9763 11.3067 78.0003 9.60003C79.067 7.85069 79.899 6.59203 80.4963 5.82403C81.2216 5.52536 82.0323 5.1627 82.9283 4.73603C83.867 4.30936 84.7843 3.92536 85.6803 3.58403C86.619 3.2427 87.451 3.07203 88.1763 3.07203C88.3896 3.07203 88.603 3.13603 88.8163 3.26403C89.0723 3.39203 89.2003 3.52003 89.2003 3.64803C89.2003 3.86136 88.7736 3.96803 87.9203 3.96803C87.4936 3.96803 87.0456 4.05336 86.5763 4.22403C86.107 4.35203 85.5096 4.80003 84.7843 5.56803C84.187 6.16536 83.3976 7.18936 82.4163 8.64003C81.4776 10.048 80.4536 11.712 79.3443 13.632C78.235 15.5093 77.1043 17.4933 75.9523 19.584C74.843 21.6747 73.7976 23.7227 72.8163 25.728C71.835 27.6907 71.003 29.4827 70.3203 31.104C69.6376 32.6827 69.1896 33.8987 68.9763 34.752C68.9336 35.0507 68.8696 35.392 68.7843 35.776C68.7416 36.1173 68.7203 36.4587 68.7203 36.8C68.7203 37.4827 68.891 38.08 69.2323 38.592C69.5736 39.104 70.2136 39.36 71.1523 39.36C71.835 39.36 72.5176 39.232 73.2003 38.976C73.9256 38.72 74.5656 38.4427 75.1203 38.144C76.6563 37.2907 78.043 36.1387 79.2803 34.688C80.5176 33.1947 81.5203 31.936 82.2883 30.912C82.4163 30.7413 82.5016 30.656 82.5443 30.656C82.6723 30.656 82.7363 30.8053 82.7363 31.104C82.7363 31.36 82.6723 31.5947 82.5443 31.808C81.7336 32.96 80.667 34.304 79.3443 35.84C78.0216 37.3333 76.4856 38.5707 74.7363 39.552C73.371 40.2773 71.8136 40.64 70.0643 40.64C68.7416 40.64 67.5896 40.1707 66.6083 39.232C65.6696 38.2507 65.2003 37.0773 65.2003 35.712C65.2003 35.0293 65.3283 34.3467 65.5843 33.664C65.9683 32.6827 66.587 31.2747 67.4403 29.44C68.3363 27.6053 69.339 25.5787 70.4483 23.36C70.0216 23.744 69.531 24.0853 68.9763 24.384C68.4216 24.6827 67.8883 24.8107 67.3763 24.768C66.0536 24.64 64.539 24.576 62.8323 24.576C61.1683 24.5333 59.0136 24.512 56.3683 24.512H53.2963C52.1016 26.944 50.8643 29.3333 49.5843 31.68C48.3043 33.984 46.9816 35.8827 45.6163 37.376C44.5496 38.528 43.2696 39.4667 41.7763 40.192C40.283 40.9173 38.7896 41.28 37.2963 41.28ZM82.4503 40.128C81.7676 40.128 81.149 40 80.5943 39.744C80.0823 39.4453 79.8263 38.8267 79.8263 37.888C79.8263 36.3947 80.2103 34.9013 80.9783 33.408C81.7463 31.872 82.5356 30.528 83.3463 29.376C84.0716 28.3947 84.8823 27.4773 85.7783 26.624C86.717 25.728 87.7196 24.96 88.7863 24.32C89.469 23.8933 90.3863 23.4453 91.5383 22.976C92.733 22.464 93.7356 22.208 94.5463 22.208C95.229 22.208 95.8263 22.4 96.3383 22.784C96.8503 23.1253 97.1063 23.7653 97.1063 24.704C97.1063 26.1547 96.7223 27.648 95.9543 29.184C95.229 30.6773 94.461 32 93.6503 33.152C93.2663 33.664 92.8823 34.1547 92.4983 34.624C92.1143 35.0507 91.6876 35.4987 91.2183 35.968C92.797 35.968 94.2476 35.52 95.5703 34.624C96.893 33.6853 98.045 32.5547 99.0263 31.232L99.1543 31.104C99.2823 31.104 99.3463 31.232 99.3463 31.488C99.3463 31.7867 99.261 32.064 99.0903 32.32C98.237 33.5147 97.1703 34.5813 95.8903 35.52C94.6103 36.416 93.1596 36.864 91.5383 36.864C91.3676 36.864 91.197 36.864 91.0263 36.864C90.8556 36.864 90.685 36.8427 90.5143 36.8C88.125 39.0187 85.437 40.128 82.4503 40.128ZM84.1143 39.04C84.7116 39.04 85.3516 38.8267 86.0343 38.4C86.7596 37.9733 87.3143 37.568 87.6983 37.184C88.4236 36.4587 89.085 35.6907 89.6823 34.88C90.2796 34.0267 90.8343 33.1733 91.3463 32.32C91.9436 31.296 92.541 30.08 93.1383 28.672C93.7356 27.264 94.0343 25.9413 94.0343 24.704C94.0343 23.7227 93.693 23.232 93.0103 23.232C92.4556 23.232 91.773 23.4667 90.9623 23.936C90.1943 24.4053 89.6183 24.832 89.2343 25.216C87.7836 26.7093 86.5676 28.3307 85.5863 30.08C85.0316 31.0613 84.4343 32.2133 83.7943 33.536C83.1543 34.8587 82.8343 36.0747 82.8343 37.184C82.8343 37.3547 82.8343 37.5253 82.8343 37.696C82.877 37.824 82.9196 37.9733 82.9623 38.144C83.133 38.7413 83.517 39.04 84.1143 39.04ZM99.3878 40.128C98.7051 40.128 98.0865 40 97.5318 39.744C97.0198 39.4453 96.7638 38.8267 96.7638 37.888C96.7638 36.3947 97.1478 34.9013 97.9158 33.408C98.6838 31.872 99.4731 30.528 100.284 29.376C101.009 28.3947 101.82 27.4773 102.716 26.624C103.655 25.728 104.657 24.96 105.724 24.32C106.407 23.8933 107.324 23.4453 108.476 22.976C109.671 22.464 110.673 22.208 111.484 22.208C112.167 22.208 112.764 22.4 113.276 22.784C113.788 23.1253 114.044 23.7653 114.044 24.704C114.044 26.1547 113.66 27.648 112.892 29.184C112.167 30.6773 111.399 32 110.588 33.152C110.204 33.664 109.82 34.1547 109.436 34.624C109.052 35.0507 108.625 35.4987 108.156 35.968C109.735 35.968 111.185 35.52 112.508 34.624C113.831 33.6853 114.983 32.5547 115.964 31.232L116.092 31.104C116.22 31.104 116.284 31.232 116.284 31.488C116.284 31.7867 116.199 32.064 116.028 32.32C115.175 33.5147 114.108 34.5813 112.828 35.52C111.548 36.416 110.097 36.864 108.476 36.864C108.305 36.864 108.135 36.864 107.964 36.864C107.793 36.864 107.623 36.8427 107.452 36.8C105.063 39.0187 102.375 40.128 99.3878 40.128ZM101.052 39.04C101.649 39.04 102.289 38.8267 102.972 38.4C103.697 37.9733 104.252 37.568 104.636 37.184C105.361 36.4587 106.023 35.6907 106.62 34.88C107.217 34.0267 107.772 33.1733 108.284 32.32C108.881 31.296 109.479 30.08 110.076 28.672C110.673 27.264 110.972 25.9413 110.972 24.704C110.972 23.7227 110.631 23.232 109.948 23.232C109.393 23.232 108.711 23.4667 107.9 23.936C107.132 24.4053 106.556 24.832 106.172 25.216C104.721 26.7093 103.505 28.3307 102.524 30.08C101.969 31.0613 101.372 32.2133 100.732 33.536C100.092 34.8587 99.7718 36.0747 99.7718 37.184C99.7718 37.3547 99.7718 37.5253 99.7718 37.696C99.8145 37.824 99.8571 37.9733 99.8998 38.144C100.071 38.7413 100.455 39.04 101.052 39.04ZM124.005 40.192C123.579 40.192 123.216 40.1067 122.917 39.936C122.619 39.7653 122.469 39.4453 122.469 38.976C122.469 38.3787 122.619 37.696 122.917 36.928C123.216 36.16 123.557 35.4133 123.941 34.688C124.325 33.92 124.667 33.3013 124.965 32.832C123.472 34.4107 121.915 35.904 120.293 37.312C119.483 37.9947 118.587 38.6347 117.605 39.232C116.624 39.8293 115.579 40.128 114.469 40.128C114.043 40.128 113.744 40 113.573 39.744C113.403 39.4453 113.317 39.104 113.317 38.72C113.317 38.5067 113.339 38.3573 113.381 38.272C113.595 36.608 114.128 34.88 114.981 33.088C115.835 31.296 116.88 29.6107 118.117 28.032C119.355 26.4533 120.613 25.1733 121.893 24.192C122.875 23.4667 123.813 23.0187 124.709 22.848C125.605 22.6347 126.587 22.528 127.653 22.528H129.765C130.448 21.376 131.152 20.096 131.877 18.688C132.645 17.2373 133.392 15.808 134.117 14.4C134.885 12.992 135.589 11.7547 136.229 10.688C137.978 7.70136 139.898 5.31203 141.989 3.52003C144.122 1.72803 146.49 0.832031 149.093 0.832031C149.648 0.832031 150.16 1.00269 150.629 1.34403C151.098 1.6427 151.312 2.11203 151.269 2.75203L151.141 5.05603C151.141 5.0987 151.098 5.1627 151.013 5.24803C150.928 5.29069 150.864 5.31203 150.821 5.31203C150.778 5.31203 150.714 5.26936 150.629 5.18403C150.501 4.41603 150.117 3.84003 149.477 3.45603C148.837 3.02936 148.048 2.81603 147.109 2.81603C146.81 2.81603 146.469 2.83736 146.085 2.88003C145.744 2.92269 145.402 3.00803 145.061 3.13603C143.866 3.56269 142.736 4.43736 141.669 5.76003C140.602 7.04003 139.45 8.7467 138.213 10.88C137.786 11.6907 137.232 12.7573 136.549 14.08C135.866 15.36 135.141 16.7467 134.373 18.24C133.648 19.7333 132.944 21.184 132.261 22.592C131.621 24 131.066 25.1947 130.597 26.176C130.384 26.688 130.021 27.4773 129.509 28.544C128.997 29.568 128.443 30.6987 127.845 31.936C127.291 33.1307 126.8 34.24 126.373 35.264C125.989 36.288 125.797 37.0133 125.797 37.44C125.797 38.0373 126.053 38.336 126.565 38.336C127.077 38.336 127.76 38.0373 128.613 37.44C129.467 36.8 130.341 36.032 131.237 35.136C132.176 34.1973 133.008 33.3013 133.733 32.448C134.501 31.5947 135.034 30.9547 135.333 30.528C135.461 30.656 135.525 30.8053 135.525 30.976C135.525 31.2747 135.397 31.5733 135.141 31.872C134.928 32.1707 134.736 32.4267 134.565 32.64C133.797 33.664 132.837 34.7733 131.685 35.968C130.576 37.12 129.36 38.1227 128.037 38.976C126.715 39.7867 125.371 40.192 124.005 40.192ZM117.093 37.952C117.605 37.952 118.309 37.5893 119.205 36.864C120.144 36.096 121.147 35.1573 122.213 34.048C123.28 32.896 124.283 31.7013 125.221 30.464C126.16 29.184 126.928 28.032 127.525 27.008C128.165 25.9413 128.485 25.1307 128.485 24.576C128.485 24.1067 128.336 23.7867 128.037 23.616C127.781 23.4453 127.44 23.36 127.013 23.36C126.331 23.36 125.584 23.616 124.773 24.128C124.005 24.5973 123.387 25.0667 122.917 25.536C122.405 26.0053 121.787 26.752 121.061 27.776C120.379 28.7573 119.696 29.8453 119.013 31.04C118.331 32.2347 117.755 33.3867 117.285 34.496C116.816 35.6053 116.581 36.5013 116.581 37.184C116.581 37.696 116.752 37.952 117.093 37.952ZM122.658 62.4C121.037 62.4 119.479 62.016 117.986 61.248C116.45 60.5227 115.319 59.392 114.594 57.856C114.295 57.3013 114.103 56.704 114.018 56.064C113.933 55.4667 113.89 54.8693 113.89 54.272V53.632C113.89 53.2907 113.933 52.9707 114.018 52.672C114.103 52.3733 114.338 52.224 114.722 52.224C114.807 52.224 114.85 52.2667 114.85 52.352C114.85 52.608 114.829 52.864 114.786 53.12C114.743 53.376 114.722 53.6533 114.722 53.952C114.722 55.9147 115.362 57.408 116.642 58.432C117.879 59.456 119.437 59.968 121.314 59.968C122.082 59.968 122.871 59.8827 123.682 59.712C124.493 59.5413 125.239 59.3067 125.922 59.008C128.653 57.856 131.02 56.192 133.026 54.016C135.074 51.84 136.844 49.3867 138.338 46.656C139.874 43.9253 141.218 41.1307 142.37 38.272C143.564 35.3707 144.674 32.64 145.698 30.08C144.802 31.5307 143.82 32.832 142.754 33.984C141.687 35.0933 140.492 36.2027 139.17 37.312C138.359 37.9947 137.463 38.6347 136.482 39.232C135.543 39.8293 134.519 40.128 133.41 40.128C132.983 40.128 132.684 40 132.514 39.744C132.343 39.4453 132.258 39.104 132.258 38.72V38.272C132.471 36.608 133.004 34.88 133.858 33.088C134.754 31.296 135.82 29.6107 137.058 28.032C138.295 26.4533 139.554 25.1733 140.834 24.192C142.284 23.0827 143.884 22.528 145.634 22.528H152.994C153.207 22.528 153.314 22.6133 153.314 22.784C153.314 23.1253 153.122 23.296 152.738 23.296C152.268 23.296 151.82 23.488 151.394 23.872C150.967 24.256 150.647 24.6187 150.434 24.96C150.007 25.6427 149.452 26.688 148.77 28.096C148.087 29.504 147.34 31.1253 146.53 32.96C145.719 34.752 144.908 36.5867 144.098 38.464C143.287 40.2987 142.54 42.0267 141.858 43.648C140.834 46.08 139.66 48.448 138.338 50.752C137.058 53.0987 135.522 55.1893 133.73 57.024C131.98 58.9013 129.89 60.3733 127.458 61.44C126.007 62.08 124.407 62.4 122.658 62.4ZM136.034 37.952C136.546 37.952 137.25 37.5893 138.146 36.864C139.042 36.096 140.023 35.1573 141.09 34.048C142.156 32.896 143.159 31.7013 144.098 30.464C145.036 29.184 145.804 28.032 146.402 27.008C147.042 25.9413 147.362 25.1307 147.362 24.576C147.362 24.1067 147.212 23.7867 146.914 23.616C146.658 23.4453 146.316 23.36 145.89 23.36C145.207 23.36 144.482 23.616 143.714 24.128C142.946 24.5973 142.327 25.0667 141.858 25.536C141.346 26.0053 140.727 26.752 140.002 27.776C139.319 28.7573 138.615 29.8453 137.89 31.04C137.207 32.2347 136.631 33.3867 136.161 34.496C135.692 35.6053 135.458 36.5013 135.458 37.184C135.458 37.696 135.65 37.952 136.034 37.952ZM151.435 40.896C151.264 40.896 151.264 40.7253 151.435 40.384C151.648 40 151.84 39.5733 152.011 39.104C152.224 38.6347 152.438 38.1227 152.651 37.568C153.078 36.544 153.547 35.392 154.059 34.112C154.571 32.832 155.062 31.5947 155.531 30.4C156 29.1627 156.406 28.1173 156.747 27.264C157.131 26.368 157.387 25.792 157.515 25.536C156.918 26.176 156.192 26.9867 155.339 27.968C154.528 28.9067 153.76 29.824 153.035 30.72C152.31 31.616 151.755 32.32 151.371 32.832C151.243 33.0027 151.136 33.088 151.051 33.088C150.966 33.088 150.923 32.9813 150.923 32.768C150.923 32.4267 151.03 32.1067 151.243 31.808C152.054 30.784 152.95 29.632 153.931 28.352C154.955 27.072 155.872 25.8987 156.683 24.832C157.494 23.7227 158.006 22.9973 158.219 22.656C158.688 22.5707 159.371 22.4427 160.267 22.272C161.206 22.1013 161.846 21.8667 162.187 21.568C162.315 21.44 162.443 21.376 162.571 21.376C162.656 21.376 162.699 21.4613 162.699 21.632C162.742 21.76 162.699 21.9093 162.571 22.08C162.315 22.336 161.931 22.8907 161.419 23.744C160.95 24.5973 160.416 25.5787 159.819 26.688C159.222 27.7973 158.646 28.864 158.091 29.888C158.518 29.248 159.072 28.5013 159.755 27.648C160.48 26.752 161.27 25.8987 162.123 25.088C162.976 24.2347 163.83 23.5307 164.683 22.976C165.579 22.4213 166.411 22.144 167.179 22.144C167.734 22.144 168.203 22.272 168.587 22.528C168.971 22.7413 169.27 23.1467 169.483 23.744C169.611 24.0427 169.675 24.384 169.675 24.768C169.675 25.4933 169.483 26.1973 169.099 26.88C168.758 27.52 168.502 28.0107 168.331 28.352C168.288 28.48 168.139 28.608 167.883 28.736C167.627 28.8213 167.52 28.7787 167.563 28.608C167.606 28.3947 167.627 28.1813 167.627 27.968C167.67 27.7547 167.691 27.52 167.691 27.264C167.691 26.5387 167.542 25.8773 167.243 25.28C166.987 24.6827 166.496 24.384 165.771 24.384C165.088 24.384 164.256 24.8107 163.275 25.664C162.294 26.5173 161.312 27.4987 160.331 28.608C159.094 30.0587 158.112 31.4453 157.387 32.768C156.662 34.048 156.064 35.3067 155.595 36.544C155.339 37.2267 155.083 37.9093 154.827 38.592C154.571 39.232 154.379 39.744 154.251 40.128C153.696 40.1707 153.142 40.2987 152.587 40.512C152.032 40.768 151.648 40.896 151.435 40.896ZM177.193 40.192C176.766 40.192 176.403 40.1067 176.105 39.936C175.806 39.7653 175.657 39.4453 175.657 38.976C175.657 38.3787 175.806 37.696 176.105 36.928C176.403 36.16 176.745 35.4133 177.129 34.688C177.513 33.92 177.854 33.3013 178.153 32.832C176.659 34.4107 175.102 35.904 173.481 37.312C172.67 37.9947 171.774 38.6347 170.793 39.232C169.811 39.8293 168.766 40.128 167.657 40.128C167.23 40.128 166.931 40 166.761 39.744C166.59 39.4453 166.505 39.104 166.505 38.72C166.505 38.5067 166.526 38.3573 166.569 38.272C166.782 36.608 167.315 34.88 168.169 33.088C169.022 31.296 170.067 29.6107 171.305 28.032C172.542 26.4533 173.801 25.1733 175.081 24.192C176.531 23.0827 178.131 22.528 179.881 22.528H187.241C187.454 22.528 187.561 22.6133 187.561 22.784C187.561 23.1253 187.369 23.296 186.985 23.296C186.558 23.296 186.131 23.5733 185.705 24.128C185.278 24.64 184.958 25.0667 184.745 25.408C184.446 25.8773 183.977 26.6667 183.337 27.776C182.697 28.8853 182.035 30.1013 181.353 31.424C180.713 32.704 180.158 33.8987 179.689 35.008C179.219 36.1173 178.985 36.928 178.985 37.44C178.985 38.0373 179.283 38.336 179.881 38.336C180.521 38.336 181.246 38.0373 182.057 37.44C182.867 36.8427 183.678 36.1173 184.489 35.264C185.342 34.368 186.11 33.4933 186.793 32.64C187.518 31.744 188.094 31.04 188.521 30.528C188.777 30.784 188.755 31.1467 188.457 31.616C188.201 32.0427 187.966 32.384 187.753 32.64C186.899 33.7493 185.918 34.9013 184.809 36.096C183.699 37.248 182.483 38.2293 181.161 39.04C179.881 39.808 178.558 40.192 177.193 40.192ZM170.281 37.952C170.793 37.952 171.497 37.5893 172.393 36.864C173.331 36.096 174.334 35.1573 175.401 34.048C176.467 32.896 177.47 31.7013 178.409 30.464C179.347 29.184 180.115 28.032 180.713 27.008C181.353 25.9413 181.673 25.1307 181.673 24.576C181.673 24.1067 181.523 23.7867 181.225 23.616C180.969 23.4453 180.627 23.36 180.201 23.36C179.518 23.36 178.771 23.616 177.961 24.128C177.193 24.5973 176.574 25.0667 176.105 25.536C175.593 26.0053 174.974 26.752 174.249 27.776C173.566 28.7573 172.883 29.8453 172.201 31.04C171.518 32.2347 170.942 33.3867 170.473 34.496C170.003 35.6053 169.769 36.5013 169.769 37.184C169.769 37.696 169.939 37.952 170.281 37.952ZM187.685 40.96C187.514 40.96 187.514 40.768 187.685 40.384C187.898 40 188.09 39.5733 188.261 39.104C188.474 38.6347 188.688 38.1227 188.901 37.568C189.328 36.544 189.797 35.392 190.309 34.112C190.821 32.832 191.312 31.5947 191.781 30.4C192.25 29.1627 192.656 28.1173 192.997 27.264C193.381 26.368 193.637 25.792 193.765 25.536C193.168 26.176 192.442 26.9867 191.589 27.968C190.778 28.9067 190.01 29.824 189.285 30.72C188.56 31.616 188.005 32.32 187.621 32.832C187.493 33.0027 187.386 33.088 187.301 33.088C187.216 33.088 187.173 32.9813 187.173 32.768C187.173 32.4267 187.28 32.1067 187.493 31.808C188.304 30.784 189.2 29.632 190.181 28.352C191.205 27.072 192.122 25.8987 192.933 24.832C193.744 23.7227 194.256 22.9973 194.469 22.656C194.938 22.5707 195.621 22.4427 196.517 22.272C197.456 22.1013 198.096 21.8667 198.437 21.568C198.565 21.44 198.693 21.376 198.821 21.376C198.906 21.376 198.949 21.4613 198.949 21.632C198.992 21.76 198.949 21.9093 198.821 22.08C198.565 22.3787 198.117 23.0827 197.477 24.192C196.88 25.2587 196.218 26.4533 195.493 27.776C194.81 29.0987 194.17 30.2933 193.573 31.36C194.256 30.5493 194.917 29.7813 195.557 29.056C196.24 28.3307 196.709 27.8187 196.965 27.52C197.477 27.008 198.181 26.368 199.077 25.6C199.973 24.832 200.912 24.128 201.893 23.488C202.874 22.848 203.728 22.4853 204.453 22.4C204.624 22.3573 204.773 22.336 204.901 22.336C205.029 22.336 205.157 22.336 205.285 22.336C206.096 22.336 206.501 22.6347 206.501 23.232C206.501 23.488 206.437 23.7867 206.309 24.128C206.181 24.4693 206.01 24.8107 205.797 25.152C205.541 25.664 205.114 26.4747 204.517 27.584C203.92 28.6507 203.386 29.632 202.917 30.528L205.925 27.52C206.437 27.008 207.141 26.368 208.037 25.6C208.933 24.832 209.872 24.128 210.853 23.488C211.834 22.848 212.688 22.4853 213.413 22.4C213.584 22.3573 213.733 22.336 213.861 22.336C214.032 22.336 214.16 22.336 214.245 22.336C215.184 22.336 215.653 22.6773 215.653 23.36C215.653 23.872 215.376 24.5547 214.821 25.408C214.522 25.8773 214.053 26.6667 213.413 27.776C212.773 28.8853 212.112 30.1013 211.429 31.424C210.789 32.704 210.234 33.8987 209.765 35.008C209.296 36.1173 209.061 36.928 209.061 37.44C209.061 38.0373 209.36 38.336 209.957 38.336C210.512 38.336 211.216 38.016 212.069 37.376C212.965 36.6933 213.861 35.8827 214.757 34.944C215.696 34.0053 216.506 33.1093 217.189 32.256C217.488 31.9147 217.765 31.5733 218.021 31.232C218.32 30.848 218.49 30.6347 218.533 30.592C218.618 30.6773 218.661 30.8267 218.661 31.04C218.661 31.3387 218.554 31.6373 218.341 31.936C218.17 32.192 218 32.4267 217.829 32.64C217.018 33.7067 216.08 34.816 215.013 35.968C213.989 37.12 212.858 38.1013 211.621 38.912C210.384 39.68 209.061 40.128 207.653 40.256C207.226 40.2987 206.8 40.2133 206.373 40C205.946 39.7867 205.733 39.4453 205.733 38.976C205.733 38.3787 205.882 37.6747 206.181 36.864C206.522 36.0533 206.885 35.2427 207.269 34.432C207.696 33.6213 208.016 32.96 208.229 32.448C208.997 30.9547 209.701 29.5467 210.341 28.224C210.981 26.9013 211.429 25.9627 211.685 25.408C211.813 25.152 211.877 24.9387 211.877 24.768C211.877 24.4693 211.642 24.448 211.173 24.704C210.704 24.96 210.128 25.344 209.445 25.856C208.805 26.368 208.208 26.88 207.653 27.392C207.098 27.8613 206.736 28.1813 206.565 28.352C205.84 29.0773 204.965 30.0587 203.941 31.296C202.96 32.5333 202.042 33.8347 201.189 35.2C200.336 36.5227 199.738 37.76 199.397 38.912C198.97 39.296 198.565 39.488 198.181 39.488C197.882 39.488 197.626 39.3813 197.413 39.168C197.242 38.9547 197.157 38.6987 197.157 38.4C197.157 37.5467 197.413 36.544 197.925 35.392C198.48 34.1973 198.928 33.216 199.269 32.448C200.037 30.9547 200.741 29.5467 201.381 28.224C202.021 26.9013 202.469 25.9627 202.725 25.408C202.853 25.152 202.917 24.9387 202.917 24.768C202.917 24.4693 202.682 24.448 202.213 24.704C201.744 24.96 201.168 25.344 200.485 25.856C199.845 26.368 199.248 26.88 198.693 27.392C198.138 27.8613 197.776 28.1813 197.605 28.352C196.581 29.4187 195.621 30.5067 194.725 31.616C193.872 32.7253 193.146 33.92 192.549 35.2C192.208 35.968 191.845 36.8213 191.461 37.76C191.077 38.6987 190.757 39.488 190.501 40.128C189.946 40.1707 189.392 40.32 188.837 40.576C188.282 40.832 187.898 40.96 187.685 40.96Z" fill="white"/>
</g>
<path fill-rule="evenodd" clip-rule="evenodd" d="M27.8333 25C27.8333 32.0877 22.0877 37.8333 15 37.8333C7.91234 37.8333 2.16666 32.0877 2.16666 25C2.16666 17.9123 7.91234 12.1667 15 12.1667C22.0877 12.1667 27.8333 17.9123 27.8333 25ZM30 25C30 33.2843 23.2843 40 15 40C6.71573 40 0 33.2843 0 25C0 16.7157 6.71573 10 15 10C23.2843 10 30 16.7157 30 25ZM23.2759 18.2759C23.2759 19.1329 22.5812 19.8276 21.7242 19.8276C20.8672 19.8276 20.1725 19.1329 20.1725 18.2759C20.1725 17.4189 20.8672 16.7242 21.7242 16.7242C22.5812 16.7242 23.2759 17.4189 23.2759 18.2759ZM10.4879 26.209C11.1556 28.7009 13.717 30.1797 16.2089 29.512C18.7008 28.8443 20.1796 26.2829 19.5119 23.791C18.8442 21.2991 16.2828 19.8203 13.7909 20.488C11.299 21.1557 9.82015 23.7171 10.4879 26.209ZM8.39503 26.7698C9.37244 30.4175 13.1219 32.5823 16.7696 31.6049C20.4174 30.6274 22.5821 26.878 21.6047 23.2302C20.6273 19.5825 16.8779 17.4177 13.2301 18.3952C9.58236 19.3726 7.41762 23.122 8.39503 26.7698Z" fill="url(#paint0_linear_12_226)"/>
<defs>
<linearGradient id="paint0_linear_12_226" x1="15" y1="10" x2="15" y2="40" gradientUnits="userSpaceOnUse">
<stop stop-color="#877EFF"/>
<stop offset="0.461458" stop-color="#685DFF"/>
<stop offset="1" stop-color="#3121FF"/>
</linearGradient>
<clipPath id="clip0_12_226">
<rect width="189" height="63" fill="white" transform="translate(30)"/>
</clipPath>
</defs>
</svg>
