<svg width="42" height="38" viewBox="0 0 42 38" fill="none" xmlns="http://www.w3.org/2000/svg">
<path fill-rule="evenodd" clip-rule="evenodd" d="M38.9666 19C38.9666 27.9778 30.9228 35.2555 21 35.2555C11.0773 35.2555 3.03332 27.9778 3.03332 19C3.03332 10.0222 11.0773 2.74444 21 2.74444C30.9228 2.74444 38.9666 10.0222 38.9666 19ZM42 19C42 29.4934 32.598 38 21 38C9.40202 38 0 29.4934 0 19C0 8.50659 9.40202 0 21 0C32.598 0 42 8.50659 42 19ZM32.5863 10.4828C32.5863 11.5683 31.6137 12.4483 30.4139 12.4483C29.2141 12.4483 28.2415 11.5683 28.2415 10.4828C28.2415 9.39727 29.2141 8.51729 30.4139 8.51729C31.6137 8.51729 32.5863 9.39727 32.5863 10.4828ZM14.6831 20.5314C15.6178 23.6878 19.2038 25.561 22.6925 24.7152C26.1811 23.8694 28.2514 20.625 27.3167 17.4686C26.3819 14.3122 22.7959 12.439 19.3073 13.2848C15.8186 14.1306 13.7482 17.375 14.6831 20.5314ZM11.753 21.2417C13.1214 25.8622 18.3707 28.6042 23.4774 27.3662C28.5844 26.128 31.6149 21.3788 30.2466 16.7583C28.8782 12.1378 23.6291 9.39575 18.5221 10.6339C13.4153 11.872 10.3847 16.6212 11.753 21.2417Z" fill="url(#paint0_linear_14_17)"/>
<defs>
<linearGradient id="paint0_linear_14_17" x1="21" y1="0" x2="21" y2="38" gradientUnits="userSpaceOnUse">
<stop stop-color="#877EFF"/>
<stop offset="0.461458" stop-color="#685DFF"/>
<stop offset="1" stop-color="#3121FF"/>
</linearGradient>
</defs>
</svg>
